<svg width="32" height="32" viewBox="0 0 32 32" fill="none" xmlns="http://www.w3.org/2000/svg">
<rect width="32" height="32" rx="4" fill="#3D7AED"/>
<path d="M13.7783 17.224V22.264C13.7783 22.392 13.8503 22.472 13.9943 22.504C14.5543 22.584 15.0823 22.624 15.5783 22.624C16.9063 22.624 17.8743 22.384 18.4823 21.904C19.1063 21.408 19.4183 20.656 19.4183 19.648C19.4183 18.752 19.0583 18.096 18.3383 17.68C17.6343 17.248 16.4583 17.032 14.8103 17.032H13.9703C13.8423 17.032 13.7783 17.096 13.7783 17.224ZM13.7783 10.216V14.32C13.7783 14.464 13.8423 14.536 13.9703 14.536H14.6663C16.1543 14.536 17.2263 14.336 17.8823 13.936C18.5543 13.52 18.8903 12.912 18.8903 12.112C18.8903 11.344 18.6183 10.776 18.0743 10.408C17.5303 10.04 16.6423 9.856 15.4103 9.856C14.8503 9.856 14.3703 9.888 13.9703 9.952C13.8423 9.984 13.7783 10.072 13.7783 10.216ZM11.8103 25.048C11.4263 25.016 11.1063 24.856 10.8503 24.568C10.5943 24.264 10.4663 23.912 10.4663 23.512V8.968C10.4663 8.568 10.5943 8.224 10.8503 7.936C11.1063 7.632 11.4343 7.464 11.8343 7.432C13.0183 7.304 14.1623 7.24 15.2663 7.24C19.7463 7.24 21.9863 8.704 21.9863 11.632C21.9863 12.608 21.6583 13.456 21.0023 14.176C20.3463 14.896 19.4823 15.36 18.4103 15.568C18.3943 15.568 18.3863 15.576 18.3863 15.592C18.3863 15.624 18.3943 15.64 18.4103 15.64C19.7223 15.832 20.7463 16.32 21.4823 17.104C22.2343 17.872 22.6103 18.824 22.6103 19.96C22.6103 21.72 22.0343 23.04 20.8823 23.92C19.7303 24.8 17.9383 25.24 15.5063 25.24C14.2903 25.24 13.0583 25.176 11.8103 25.048Z" fill="white"/>
</svg>
